# xmcd
#
# Track frame offsets: 
#        150
#        12232
#        37650
#        63947
#        79537
#        107717
#        155515
#        182320
#        204825
#        236357
#        255017
#
# Disc length: 4117 seconds
#
# Revision: 5
# Processed by: cddbd v1.5.2PL0 Copyright (c) Steve Scherf et al.
# Submitted via: ExactAudioCopy v0.99pb4
#
DISCID=6a10130b
DTITLE=Stevie Ray Vaughan And Double Trouble - Last Farewell
DYEAR=1990
DGENRE=Blues-Rock
TTITLE0=The House Is Rockin'
TTITLE1=Tightrope
TTITLE2=Look At Little Sister
TTITLE3=Let Me Love You Baby
TTITLE4=Leave My Girl Alone
TTITLE5=Riviera Paradise
TTITLE6=Wall Of Denial
TTITLE7=Superstition
TTITLE8=Cold Shot
TTITLE9=Crossfire
TTITLE10=Voodoo Chile
EXTD=YEAR: 1990
EXTT0=
EXTT1=
EXTT2=
EXTT3=
EXTT4=
EXTT5=
EXTT6=
EXTT7=
EXTT8=
EXTT9=
EXTT10=
PLAYORDER=
